<svg width="700" height="722" viewBox="0 0 700 722" fill="none" xmlns="http://www.w3.org/2000/svg">
<path d="M0 306.303C0 378.777 58.7891 437.576 131.25 437.576H184.023L353.691 285.792C370.371 270.887 391.973 262.545 414.395 262.545C475.371 262.545 518.984 321.345 501.484 379.734L484.121 437.576H568.75C641.211 437.576 700 378.777 700 306.303C700 233.83 641.211 175.03 568.75 175.03C568.066 175.03 567.246 175.03 566.562 175.03C568.066 167.92 568.75 160.672 568.75 153.152C568.75 92.7114 519.805 43.7576 459.375 43.7576C426.152 43.7576 396.348 58.6625 376.25 82.0455C350.684 33.2284 299.551 0 240.625 0C155.996 0 87.5 68.508 87.5 153.152C87.5 162.86 88.457 172.432 90.0976 181.594C37.7344 198.823 0 248.188 0 306.303ZM219.57 546.97H304.062L261.406 689.319C256.484 705.591 268.652 722 285.742 722C292.031 722 298.047 719.675 302.695 715.573L495.605 542.731C500.391 538.492 503.125 532.338 503.125 525.775C503.125 513.194 493.008 503.075 480.43 503.075H395.938L438.594 360.727C443.516 344.454 431.348 328.045 414.258 328.045C407.969 328.045 401.953 330.37 397.305 334.472L204.395 507.451C199.609 511.69 196.875 517.844 196.875 524.407C196.875 536.988 206.992 547.106 219.57 547.106V546.97Z" fill="white"/>
</svg>
